<mxfile host="app.diagrams.net" modified="2022-01-14T09:45:28.111Z" agent="5.0 (Macintosh; Intel Mac OS X 10_15_7) AppleWebKit/537.36 (KHTML, like Gecko) Chrome/97.0.4692.71 Safari/537.36" etag="Kh-Y8pWUtlw45uLrrloS" version="15.9.6" type="github">
  <diagram id="ZqRQ5VkeZqiA2t7ABY4D" name="Page-1">
    <mxGraphModel dx="556" dy="361" grid="1" gridSize="10" guides="1" tooltips="1" connect="1" arrows="1" fold="1" page="1" pageScale="1" pageWidth="827" pageHeight="1169" math="0" shadow="0">
      <root>
        <mxCell id="0" />
        <mxCell id="1" parent="0" />
        <mxCell id="VfXCrgoS_HlfUjQ3JBpE-6" value="CalculatorStrategy" style="shape=umlActor;verticalLabelPosition=bottom;verticalAlign=top;html=1;outlineConnect=0;" vertex="1" parent="1">
          <mxGeometry x="360" y="330" width="30" height="60" as="geometry" />
        </mxCell>
        <mxCell id="VfXCrgoS_HlfUjQ3JBpE-7" value="Client" style="shape=umlActor;verticalLabelPosition=bottom;verticalAlign=top;html=1;outlineConnect=0;" vertex="1" parent="1">
          <mxGeometry x="160" y="340" width="30" height="60" as="geometry" />
        </mxCell>
        <mxCell id="VfXCrgoS_HlfUjQ3JBpE-10" value="Calculator" style="shape=umlActor;verticalLabelPosition=bottom;verticalAlign=top;html=1;outlineConnect=0;" vertex="1" parent="1">
          <mxGeometry x="260" y="330" width="30" height="60" as="geometry" />
        </mxCell>
        <mxCell id="VfXCrgoS_HlfUjQ3JBpE-13" value="" style="endArrow=none;dashed=1;html=1;rounded=0;" edge="1" parent="1" target="VfXCrgoS_HlfUjQ3JBpE-10">
          <mxGeometry width="50" height="50" relative="1" as="geometry">
            <mxPoint x="275" y="470" as="sourcePoint" />
            <mxPoint x="300" y="460" as="targetPoint" />
          </mxGeometry>
        </mxCell>
        <mxCell id="VfXCrgoS_HlfUjQ3JBpE-17" value="" style="endArrow=none;dashed=1;html=1;rounded=0;" edge="1" parent="1">
          <mxGeometry width="50" height="50" relative="1" as="geometry">
            <mxPoint x="175" y="440" as="sourcePoint" />
            <mxPoint x="174.5" y="400" as="targetPoint" />
          </mxGeometry>
        </mxCell>
        <mxCell id="VfXCrgoS_HlfUjQ3JBpE-18" value="" style="rounded=0;whiteSpace=wrap;html=1;" vertex="1" parent="1">
          <mxGeometry x="170" y="440" width="10" height="80" as="geometry" />
        </mxCell>
        <mxCell id="VfXCrgoS_HlfUjQ3JBpE-19" value="" style="rounded=0;whiteSpace=wrap;html=1;" vertex="1" parent="1">
          <mxGeometry x="270" y="440" width="10" height="80" as="geometry" />
        </mxCell>
        <mxCell id="VfXCrgoS_HlfUjQ3JBpE-20" value="" style="endArrow=classic;html=1;rounded=0;" edge="1" parent="1">
          <mxGeometry width="50" height="50" relative="1" as="geometry">
            <mxPoint x="180" y="447" as="sourcePoint" />
            <mxPoint x="270" y="447" as="targetPoint" />
          </mxGeometry>
        </mxCell>
        <mxCell id="VfXCrgoS_HlfUjQ3JBpE-21" value="&lt;font style=&quot;font-size: 8px&quot;&gt;Rechne 537-56&lt;/font&gt;" style="text;html=1;strokeColor=none;fillColor=none;align=center;verticalAlign=middle;whiteSpace=wrap;rounded=0;" vertex="1" parent="1">
          <mxGeometry x="200" y="420" width="60" height="30" as="geometry" />
        </mxCell>
        <mxCell id="VfXCrgoS_HlfUjQ3JBpE-25" value="" style="endArrow=none;dashed=1;html=1;rounded=0;" edge="1" parent="1">
          <mxGeometry width="50" height="50" relative="1" as="geometry">
            <mxPoint x="374.5" y="475" as="sourcePoint" />
            <mxPoint x="374.5" y="395" as="targetPoint" />
          </mxGeometry>
        </mxCell>
        <mxCell id="VfXCrgoS_HlfUjQ3JBpE-31" value="" style="edgeStyle=orthogonalEdgeStyle;rounded=0;orthogonalLoop=1;jettySize=auto;html=1;fontSize=8;startArrow=open;startFill=0;endArrow=none;endFill=0;" edge="1" parent="1" source="VfXCrgoS_HlfUjQ3JBpE-23" target="VfXCrgoS_HlfUjQ3JBpE-29">
          <mxGeometry relative="1" as="geometry" />
        </mxCell>
        <mxCell id="VfXCrgoS_HlfUjQ3JBpE-23" value="" style="rounded=0;whiteSpace=wrap;html=1;" vertex="1" parent="1">
          <mxGeometry x="370" y="450" width="10" height="40" as="geometry" />
        </mxCell>
        <mxCell id="VfXCrgoS_HlfUjQ3JBpE-26" value="" style="endArrow=classic;html=1;rounded=0;fontSize=8;exitX=1;exitY=0.25;exitDx=0;exitDy=0;entryX=0;entryY=0.25;entryDx=0;entryDy=0;" edge="1" parent="1" source="VfXCrgoS_HlfUjQ3JBpE-19" target="VfXCrgoS_HlfUjQ3JBpE-23">
          <mxGeometry width="50" height="50" relative="1" as="geometry">
            <mxPoint x="300" y="480" as="sourcePoint" />
            <mxPoint x="350" y="430" as="targetPoint" />
          </mxGeometry>
        </mxCell>
        <mxCell id="VfXCrgoS_HlfUjQ3JBpE-27" value="&lt;font style=&quot;font-size: 8px&quot;&gt;subtraction(537,56)&lt;/font&gt;" style="text;html=1;strokeColor=none;fillColor=none;align=center;verticalAlign=middle;whiteSpace=wrap;rounded=0;" vertex="1" parent="1">
          <mxGeometry x="290" y="440" width="60" height="30" as="geometry" />
        </mxCell>
        <mxCell id="VfXCrgoS_HlfUjQ3JBpE-28" value="" style="endArrow=none;dashed=1;html=1;rounded=0;fontSize=8;entryX=0;entryY=0.75;entryDx=0;entryDy=0;exitX=1;exitY=0.5;exitDx=0;exitDy=0;endFill=0;startArrow=open;startFill=0;" edge="1" parent="1" source="VfXCrgoS_HlfUjQ3JBpE-19" target="VfXCrgoS_HlfUjQ3JBpE-23">
          <mxGeometry width="50" height="50" relative="1" as="geometry">
            <mxPoint x="300" y="480" as="sourcePoint" />
            <mxPoint x="350" y="430" as="targetPoint" />
          </mxGeometry>
        </mxCell>
        <mxCell id="VfXCrgoS_HlfUjQ3JBpE-29" value="&lt;font style=&quot;font-size: 8px&quot;&gt;481&lt;/font&gt;" style="text;html=1;strokeColor=none;fillColor=none;align=center;verticalAlign=middle;whiteSpace=wrap;rounded=0;" vertex="1" parent="1">
          <mxGeometry x="300" y="460" width="60" height="30" as="geometry" />
        </mxCell>
        <mxCell id="VfXCrgoS_HlfUjQ3JBpE-30" value="" style="endArrow=none;dashed=1;html=1;rounded=0;fontSize=8;entryX=0;entryY=0.375;entryDx=0;entryDy=0;entryPerimeter=0;exitX=1;exitY=0.5;exitDx=0;exitDy=0;endFill=0;startArrow=open;startFill=0;" edge="1" parent="1">
          <mxGeometry width="50" height="50" relative="1" as="geometry">
            <mxPoint x="180" y="489.41" as="sourcePoint" />
            <mxPoint x="270" y="489.41" as="targetPoint" />
          </mxGeometry>
        </mxCell>
      </root>
    </mxGraphModel>
  </diagram>
</mxfile>
